<?xml version="1.0" encoding="UTF-8"?>
<svg xmlns="http://www.w3.org/2000/svg" xmlns:xlink="http://www.w3.org/1999/xlink" width="100" zoomAndPan="magnify" viewBox="0 0 750 749.999995" height="100" preserveAspectRatio="xMidYMid meet" version="1.0" style="background-color:transparent;">
  <defs>
    <clipPath id="adaa968e57">
      <path d="M 269 146 L 455 146 L 455 580 L 269 580 Z M 269 146 " clip-rule="nonzero"/>
    </clipPath>
    <clipPath id="9e70e1f612">
      <path d="M 488.1875 163.851562 L 415.910156 611.046875 L 261.910156 586.160156 L 334.183594 138.960938 Z M 488.1875 163.851562 " clip-rule="nonzero"/>
    </clipPath>
    <clipPath id="7070ed45f8">
      <path d="M 334.082031 138.945312 L 261.804688 586.140625 L 415.808594 611.03125 L 488.082031 163.832031 Z M 334.082031 138.945312 " clip-rule="nonzero"/>
    </clipPath>
    <clipPath id="a87884f3c7">
      <path d="M 264 499 L 362 499 L 362 586 L 264 586 Z M 264 499 " clip-rule="nonzero"/>
    </clipPath>
    <clipPath id="5847ee9612">
      <path d="M 488.1875 163.851562 L 415.910156 611.046875 L 261.910156 586.160156 L 334.183594 138.960938 Z M 488.1875 163.851562 " clip-rule="nonzero"/>
    </clipPath>
    <clipPath id="3f3f58fa34">
      <path d="M 334.082031 138.945312 L 261.804688 586.140625 L 415.808594 611.03125 L 488.082031 163.832031 Z M 334.082031 138.945312 " clip-rule="nonzero"/>
    </clipPath>
  </defs>
  <rect x="-75" width="900" fill="none" y="-74.999999" height="899.999994" fill-opacity="1"/>
  <rect x="-75" width="900" fill="none" y="-74.999999" height="899.999994" fill-opacity="1"/>
  <g clip-path="url(#adaa968e57)">
    <g clip-path="url(#9e70e1f612)">
      <g clip-path="url(#7070ed45f8)">
        <path fill="#176D38" d="M 269.929688 573.804688 L 270.035156 573.148438 C 270.917969 570.605469 272.789062 568.570312 275.648438 567.042969 C 308.503906 550.679688 332.957031 536.980469 349 525.957031 C 358.820312 519.539062 370.582031 509.203125 384.292969 494.949219 C 407.03125 471.855469 424.277344 438.507812 436.027344 394.90625 C 443.8125 365.316406 443.464844 330.855469 434.992188 291.515625 C 430.066406 268.960938 422.800781 246.859375 413.207031 225.210938 C 408.886719 214.09375 397.433594 193.738281 378.851562 164.148438 C 378.183594 162.101562 378.054688 160.425781 378.472656 159.113281 C 378.570312 157.84375 380.507812 154.835938 384.28125 150.082031 C 384.664062 149.070312 384.449219 148.027344 383.644531 146.949219 C 405.460938 172.492188 424.46875 210.730469 440.671875 261.667969 C 453.144531 303.230469 456.992188 342.210938 452.214844 378.613281 C 449.585938 399.515625 442.714844 422.167969 431.597656 446.578125 C 418.4375 473.1875 404.308594 493.9375 389.203125 508.832031 C 371.386719 528.164062 346.574219 546.742188 314.761719 564.5625 C 285.800781 579.972656 270.859375 583.050781 269.929688 573.804688 " fill-opacity="1" fill-rule="nonzero"/>
      </g>
    </g>
  </g>
  <g clip-path="url(#a87884f3c7)">
    <g clip-path="url(#5847ee9612)">
      <g clip-path="url(#3f3f58fa34)">
        <path fill="#176D38" d="M 264.136719 573.992188 L 264.171875 573.621094 C 264.199219 572.160156 265 570.164062 266.585938 567.632812 C 282.265625 545.074219 291.78125 530.980469 295.125 525.347656 C 297.125 521.792969 300.425781 514.933594 305.035156 504.773438 C 305.875 503.089844 306.457031 502.015625 306.78125 501.550781 C 307.753906 500.078125 308.621094 499.464844 309.386719 499.714844 C 310.367188 499.660156 311.53125 499.769531 312.878906 500.042969 L 324.363281 502.925781 C 325.207031 503.042969 325.691406 502.949219 325.820312 502.640625 C 325.882812 504.332031 325.441406 506.925781 324.496094 510.417969 C 322.417969 517.789062 318.941406 525.710938 314.070312 534.191406 C 312.40625 537.296875 304.957031 547.269531 291.726562 564.109375 L 334.042969 554.792969 C 340.40625 553.554688 347.011719 552.507812 353.855469 551.65625 C 354.605469 551.570312 355.316406 551.730469 355.992188 552.140625 C 356.394531 552.136719 357.289062 553.132812 358.675781 555.125 C 360.277344 557.632812 361.148438 561.089844 361.285156 565.492188 C 361.105469 567.089844 360.679688 567.996094 360.011719 568.210938 C 351.660156 571.46875 344.476562 573.769531 338.464844 575.109375 C 327.273438 577.882812 307.574219 581.207031 279.367188 585.078125 C 275.101562 585.710938 271.492188 585.039062 268.53125 583.0625 C 265.085938 579.5 263.621094 576.476562 264.136719 573.992188 " fill-opacity="1" fill-rule="nonzero"/>
      </g>
    </g>
  </g>
</svg>
